{"title":"Doomsday.Preppers.S01E12.Extreme.Prep.Edition.HDTV.XviD-k3n","uid":7214875,"size":365469202,"categoryP":"video","categoryS":"tv_shows","magnet":"?xt=urn:btih:c64c642a7a228a615e15b5b7ebbf28c28c0bbe80&amp;dn=Doomsday.Preppers.S01E12.Extreme.Prep.Edition.HDTV.XviD-k3n&amp;tr=udp%3A%2F%2Ftracker.openbittorrent.com%3A80&amp;tr=udp%3A%2F%2Fopen.demonii.com%3A1337&amp;tr=udp%3A%2F%2Ftracker.coppersurfer.tk%3A6969&amp;tr=udp%3A%2F%2Fexodus.desync.com%3A6969","seeders":0,"leechers":0,"uploader":"k3nd00d","files":-1,"time":1335349191,"description":"NO AUDIO PROBLEMS, CAPTURED MYSELF.\n\n &lt;a href=&quot;\nhttp://channel.nationalgeographic.com/channel/doomsday-preppers/&quot; rel=&quot;nofollow&quot; target=&quot;_NEW&quot;&gt;\nhttp://channel.nationalgeographic.com/channel/doomsday-preppers/&lt;/a&gt;\n   &lt;a href=&quot;\nhttp://channel.nationalgeographic.com/channel/doomsday-preppers/episode-guide/&quot; rel=&quot;nofollow&quot; target=&quot;_NEW&quot;&gt;\nhttp://channel.nationalgeographic.com/channel/doomsday-preppers/episode-guide/&lt;/a&gt;\n  &lt;a href=&quot;\nhttp://thetvdb.com/?tab=seasonall&amp;id=255608&amp;lid=7&quot; rel=&quot;nofollow&quot; target=&quot;_NEW&quot;&gt;\nhttp://thetvdb.com/?tab=seasonall&amp;id=255608&amp;lid=7&lt;/a&gt;\n\n\n\nGeneral\nFormat                           : AVI\nFormat/Info                      : Audio Video Interleave\nFile size                        : 349 MiB\nDuration                         : 45mn 9s\nOverall bit rate                 : 1 079 Kbps\n\nVideo\nID                               : 0\nFormat                           : MPEG-4 Visual\nFormat profile                   : Advanced Simple@L5\nFormat settings, BVOP            : 1\nFormat settings, QPel            : No\nFormat settings, GMC             : No warppoints\nFormat settings, Matrix          : Default (H.263)\nMuxing mode                      : Packed bitstream\nCodec ID                         : XVID\nCodec ID/Hint                    : XviD\nDuration                         : 45mn 9s\nBit rate                         : 936 Kbps\nWidth                            : 624 pixels\nHeight                           : 352 pixels\nDisplay aspect ratio             : 16:9\nFrame rate                       : 29.970 fps\nColor space                      : YUV\nChroma subsampling               : 4:2:0\nBit depth                        : 8 bits\nScan type                        : Progressive\nCompression mode                 : Lossy\nBits/(Pixel*Frame)               : 0.142\nStream size                      : 302 MiB (87%)\n\nAudio\nID                               : 1\nFormat                           : MPEG Audio\nFormat version                   : Version 1\nFormat profile                   : Layer 3\nMode                             : Joint stereo\nMode extension                   : MS Stereo\nCodec ID                         : 55\nCodec ID/Hint                    : MP3\nDuration                         : 45mn 9s\nBit rate mode                    : Constant\nBit rate                         : 128 Kbps\nChannel(s)                       : 2 channels\nSampling rate                    : 48.0 KHz\nCompression mode                 : Lossy\nStream size                      : 41.3 MiB (12%)\nAlignment                        : Aligned on interleaves\nInterleave, duration             : 34 ms (1.01 video frame)\nInterleave, preload duration     : 408 ms\n","torrent":{"xt":"urn:btih:c64c642a7a228a615e15b5b7ebbf28c28c0bbe80","amp;dn":"Doomsday.Preppers.S01E12.Extreme.Prep.Edition.HDTV.XviD-k3n","amp;tr":["udp%3A%2F%2Ftracker.openbittorrent.com%3A80","udp%3A%2F%2Fopen.demonii.com%3A1337","udp%3A%2F%2Ftracker.coppersurfer.tk%3A6969","udp%3A%2F%2Fexodus.desync.com%3A6969"],"infoHash":"c64c642a7a228a615e15b5b7ebbf28c28c0bbe80","infoHashBuffer":{"type":"Buffer","data":[198,76,100,42,122,34,138,97,94,21,181,183,235,191,40,194,140,11,190,128]},"announce":[],"urlList":[]}}